#!OML:ASF F:\VICON\USERDATA\INSTALL\rory3\rory3.ASF
:FULLY-SPECIFIED
:DEGREES
331
root -6.9438 15.9943 1.42348 64.3126 17.7391 -46.1592
lowerback 22.9069 -1.24314 -7.71221
upperback -0.591212 -4.33985 -4.80889
thorax -13.4386 -1.6337 0.381842
lowerneck -28.4533 0.722937 -3.62772
upperneck 7.44757 -0.21365 17.4064
head 6.97368 1.55666 6.49891
rclavicle 1.90833e-014 2.06736e-014
rhumerus -12.3508 -22.9809 11.5633
rradius 33.0129
rwrist 4.33262
rhand -29.1094 -65.7796
rfingers 7.12502
rthumb -2.4574 -1344.25
lclavicle 1.90833e-014 2.06736e-014
lhumerus 20.3417 7.22428 -0.938089
lradius 29.5104
lwrist 31.3833
lhand -39.2238 335.037
lfingers 7.12502
lthumb -12.2195 4.66042
rfemur -30.4744 -7.03989 49.7138
rtibia 42.9038
rfoot -1.79572 -16.5201
rtoes -18.271
lfemur -96.8004 24.0553 3.65233
ltibia 54.3461
lfoot -26.7114 30.0002
ltoes 15.4656
332
root -6.95688 16.0294 1.30133 63.4546 15.9823 -46.4121
lowerback 22.6714 -1.11279 -7.70536
upperback -0.526249 -4.15125 -4.88664
thorax -13.2455 -1.56461 0.222676
lowerneck -28.032 0.510966 -4.1263
upperneck 7.52241 -0.40815 17.8343
head 6.96692 1.46513 6.69688
rclavicle 4.77083e-014 -5.08889e-014
rhumerus -12.4836 -22.256 10.2806
rradius 32.8194
rwrist 4.63183
rhand -28.9844 -66.0279
rfingers 7.12502
rthumb -2.33661 -1344.01
lclavicle 4.77083e-014 -5.08889e-014
lhumerus 18.2098 5.24064 -0.949232
lradius 29.8152
lwrist 31.4945
lhand -38.1337 341.037
lfingers 7.12502
lthumb -11.1682 10.7197
rfemur -29.6347 -6.74288 49.5151
rtibia 42.0442
rfoot -1.26464 -15.5722
rtoes -18.9514
lfemur -95.8061 24.3417 3.09141
ltibia 54.5857
lfoot -27.0211 30.1869
ltoes 16.3137
333
root -6.96876 16.0682 1.18194 62.8097 14.168 -46.3898
lowerback 22.5939 -0.819216 -8.04127
upperback -0.635351 -3.86641 -4.87957
thorax -13.3247 -1.41194 0.323423
lowerneck -27.5807 0.20385 -4.47229
upperneck 7.78145 -0.776264 17.9164
head 7.02852 1.26534 6.72928
rclavicle 9.54166e-015 1.82882e-014
rhumerus -13.4262 -20.8642 9.53325
rradius 33.1267
rwrist 4.2208
rhand -29.4394 -66.2865
rfingers 7.12502
rthumb -2.77608 -1343.75
lclavicle 9.54166e-015 1.82882e-014
lhumerus 16.3374 2.26878 -0.701632
lradius 30.0848
lwrist 31.5047
lhand -37.3358 342.82
lfingers 7.12502
lthumb -10.3986 12.5427
rfemur -28.9924 -6.50779 49.1701
rtibia 41.3234
rfoot -1.4271 -14.8518
rtoes -18.259
lfemur -95.0789 24.5988 1.98533
ltibia 54.6802
lfoot -27.0373 30.2342
ltoes 16.974
334
root -6.98231 16.1072 1.074 62.37 12.2994 -46.1685
lowerback 22.3628 -0.843959 -8.04632
upperback -0.745874 -3.9416 -5.25043
thorax -13.3517 -1.46364 -0.0773955
lowerneck -27.6777 -0.0945819 -4.68801
upperneck 8.44219 -1.31928 18.5338
head 7.34935 1.07929 6.94306
rclavicle -7.31528e-014 2.06736e-014
rhumerus -14.214 -19.8268 8.12541
rradius 33.2977
rwrist 4.23992
rhand -36.6835 -44.401
rfingers 7.12502
rthumb -9.76931 -1514.15
lclavicle -7.31528e-014 2.06736e-014
lhumerus 14.2681 -1.11882 -1.08527
lradius 30.4359
lwrist 31.2736
lhand -38.8487 337.2
lfingers 7.12502
lthumb -11.8578 6.84417
rfemur -28.5233 -6.50824 48.7691
rtibia 40.6676
rfoot -1.52563 -14.193
rtoes -18.2207
lfemur -94.6254 24.9173 0.394062
ltibia 54.7133
lfoot -26.83 30.1394
ltoes 17.2341
335
root -6.99963 16.1435 0.965658 62.0301 10.4024 -45.7163
lowerback 22.0142 -0.993759 -8.06858
upperback -0.879058 -4.18676 -5.72909
thorax -13.3407 -1.59727 -0.539617
lowerneck -27.4388 -0.394563 -4.97011
upperneck 8.87887 -1.86266 19.4431
head 7.56142 0.894807 7.25683
rclavicle 9.85972e-014 6.32135e-014
rhumerus -15.2553 -20.691 6.57681
rradius 34.1862
rwrist 5.94872
rhand -34.4614 -54.4068
rfingers 7.12502
rthumb -7.62495 -1524.25
lclavicle 9.85972e-014 6.32135e-014
lhumerus 12.2004 -4.72881 -1.56375
lradius 30.8855
lwrist 31.6156
lhand -40.3889 332.979
lfingers 7.12502
lthumb -13.3427 2.53185
rfemur -28.2582 -6.8109 48.303
rtibia 40.2901
rfoot -1.57314 -13.603
rtoes -18.5447
lfemur -94.3371 25.2114 -1.62072
ltibia 54.6741
lfoot -26.8037 29.6764
ltoes 17.3262
336
root -7.01412 16.1609 0.847446 61.4786 9.22023 -45.3248
lowerback 21.7088 -0.662124 -8.0907
upperback -0.826841 -3.69726 -5.55641
thorax -13.1076 -1.37873 -0.491056
lowerneck -26.3815 -0.921595 -5.19835
upperneck 8.53777 -2.50771 19.533
head 7.37331 0.506461 7.19126
rclavicle -3.18055e-015 5.56597e-014
rhumerus -16.577 -18.5578 6.7683
rradius 33.8212
rwrist 4.1123
rhand -34.5 -58.7236
rfingers 7.12502
rthumb -7.66218 -1528.56
lclavicle -3.18055e-015 5.56597e-014
lhumerus 11.002 -4.65792 1.83421
lradius 30.4244
lwrist 28.1508
lhand -40.3275 331.772
lfingers 7.12502
lthumb -13.2835 1.32905
rfemur -27.8666 -7.50432 48.4871
rtibia 40.095
rfoot -2.0117 -13.0865
rtoes -18.0024
lfemur -94.2458 25.45 -3.31956
ltibia 54.6749
lfoot -26.7712 28.7417
ltoes 17.5554
337
root -7.03162 16.1564 0.713509 61.7974 8.36165 -44.8757
lowerback 20.5242 -1.2683 -6.60183
upperback -1.02151 -4.06467 -5.99627
thorax -12.7706 -1.68183 -1.7318
lowerneck -26.0437 -1.05796 -5.09905
upperneck 8.68452 -2.87223 20.16
head 7.44374 0.37659 7.34721
rclavicle 1.08139e-013 -5.18828e-014
rhumerus -17.1569 -17.8429 5.27913
rradius 33.6575
rwrist 3.48753
rhand -32.8004 -63.3105
rfingers 7.12502
rthumb -6.0215 -1706.8
lclavicle 1.08139e-013 -5.18828e-014
lhumerus 9.14642 -7.16069 1.95808
lradius 30.6574
lwrist 28.1656
lhand -40.3054 331.323
lfingers 7.12502
lthumb -13.2622 0.88076
rfemur -28.5661 -7.89571 49.0855
rtibia 40.243
rfoot -2.3917 -12.7329
rtoes -16.9577
lfemur -95.3594 25.7215 -5.26537
ltibia 54.6423
lfoot -26.3147 27.8433
ltoes 17.6965
338
root -7.04714 16.179 0.606926 61.4534 6.81901 -44.2421
lowerback 19.7366 -1.278 -7.09994
upperback -0.882147 -4.0644 -5.79964
thorax -12.1027 -1.6597 -1.24171
lowerneck -26.044 -1.44115 -5.75236
upperneck 8.8294 -3.28624 20.5661
head 7.57516 0.18928 7.55877
rclavicle -1.20861e-013 3.59924e-014
rhumerus -17.2782 -17.8467 4.95611
rradius 33.5219
rwrist 2.94347
rhand -31.2736 -65.6676
rfingers 7.12502
rthumb -4.54733 -1704.4
lclavicle -1.20861e-013 3.59924e-014
lhumerus 7.0176 -8.41005 3.98084
lradius 30.6073
lwrist 27.6541
lhand -40.5656 329.963
lfingers 7.12502
lthumb -13.5129 -0.495484
rfemur -28.4556 -8.25444 48.8719
rtibia 40.4421
rfoot -2.57351 -12.6211
rtoes -15.908
lfemur -95.4041 25.956 -7.51682
ltibia 54.612
lfoot -25.9342 27.0482
ltoes 17.2362
